#N canvas 531 133 631 308 10;
#X obj 92 45 comport 9600;
#X msg 110 12 devices;
#X msg 33 14 open 2;
#X floatatom 116 106 5 0 0 0 - - -;
#X floatatom 31 103 5 0 0 0 - - -;
#X obj 30 78 split 10 255;
#X obj 116 77 split 0 9;
#X msg 231 43 connect localhost 8000;
#X msg 231 65 disconnect;
#X msg 375 44 send /renoise/transport/start;
#X msg 377 67 send /renoise/transport/stop;
#X msg 326 148 send /renoise/trigger/note_on 1 -1 60 127;
#X msg 325 167 send /renoise/trigger/note_on 2 -1 60 127;
#X msg 325 186 send /renoise/trigger/note_on 3 -1 60 127;
#X msg 325 205 send /renoise/trigger/note_on 4 -1 60 127;
#X msg 324 224 send /renoise/trigger/note_on 5 -1 60 127;
#X obj 116 133 select 0 1 2 3 4 5;
#X msg 324 243 send /renoise/trigger/note_on 6 -1 60 127;
#X obj 228 261 sendOSC;
#X connect 0 0 5 0;
#X connect 0 0 6 0;
#X connect 1 0 0 0;
#X connect 2 0 0 0;
#X connect 3 0 16 0;
#X connect 5 0 4 0;
#X connect 6 0 3 0;
#X connect 7 0 18 0;
#X connect 8 0 18 0;
#X connect 9 0 18 0;
#X connect 10 0 18 0;
#X connect 11 0 18 0;
#X connect 12 0 18 0;
#X connect 13 0 18 0;
#X connect 14 0 18 0;
#X connect 15 0 18 0;
#X connect 16 0 11 0;
#X connect 16 1 12 0;
#X connect 16 2 13 0;
#X connect 16 3 14 0;
#X connect 16 4 15 0;
#X connect 16 5 17 0;
#X connect 17 0 18 0;
